<?xml version="1.0" encoding="UTF-8"?> <svg xmlns="http://www.w3.org/2000/svg" width="171" height="36" viewBox="0 0 171 36" fill="none"><path d="M33.137 19.1689H16.4949C15.461 19.1689 14.6239 20.006 14.6239 21.0399C14.6239 22.0739 15.461 22.9109 16.4949 22.9109H17.7259C18.4152 22.9109 19.006 23.4526 19.006 24.1911C19.006 24.8804 18.4644 25.4713 17.7259 25.4713H9.50329C8.81397 25.4713 8.22313 24.9297 8.22313 24.1911C8.22313 23.5018 8.76474 22.9109 9.50329 22.9109H9.94642C10.9804 22.9109 11.8174 22.0739 11.8174 21.0399C11.8174 20.006 10.9804 19.1689 9.94642 19.1689H1.92081C0.886833 19.1689 0.0498047 20.006 0.0498047 21.0399C0.0498047 22.0739 0.886833 22.9109 1.92081 22.9109H4.97349C5.66281 22.9109 6.25365 23.4526 6.25365 24.1911C6.25365 24.8804 5.71205 25.4713 4.97349 25.4713H4.23494C3.20097 25.4713 2.36394 26.3083 2.36394 27.3423C2.36394 28.3762 3.20097 29.2133 4.23494 29.2133H15.3625C16.0518 29.2133 16.6426 29.7549 16.6426 30.4934C16.6426 31.1827 16.101 31.7736 15.3625 31.7736H12.9991C11.9651 31.7736 11.1281 32.6106 11.1281 33.6446C11.1281 34.6786 11.9651 35.5156 12.9991 35.5156H22.3049C23.3389 35.5156 24.1759 34.6786 24.1759 33.6446C24.1759 32.6106 23.3389 31.7736 22.3049 31.7736H19.9415C19.2522 31.7736 18.6614 31.232 18.6614 30.4934C18.6614 29.8041 19.203 29.2133 19.9415 29.2133H30.4782C31.5122 29.2133 32.3492 28.3762 32.3492 27.3423C32.3492 26.3083 31.5122 25.4713 30.4782 25.4713H28.0164C27.327 25.4713 26.7362 24.9297 26.7362 24.1911C26.7362 23.5018 27.2778 22.9109 28.0164 22.9109H33.137C34.171 22.9109 35.008 22.0739 35.008 21.0399C34.9588 20.006 34.171 19.1689 33.137 19.1689ZM24.7175 24.0926C24.7175 24.782 24.1759 25.3728 23.4373 25.3728H22.2556C21.5663 25.3728 20.9755 24.8312 20.9755 24.0926C20.9755 23.4033 21.5171 22.8125 22.2556 22.8125H23.4373C24.1759 22.8617 24.7175 23.4033 24.7175 24.0926Z" fill="url(#paint0_linear_10_7523)"></path><path d="M33.1364 12.9152H30.5761C29.8868 12.9152 29.296 12.3736 29.296 11.635C29.296 10.9457 29.8376 10.3549 30.5761 10.3549H30.4776C31.5116 10.3549 32.3486 9.51784 32.3486 8.48387C32.3486 7.44989 31.5116 6.61287 30.4776 6.61287H19.9409C19.2516 6.61287 18.6608 6.07126 18.6608 5.33271C18.6608 4.64339 19.2024 4.05255 19.9409 4.05255H22.3043C23.3383 4.05255 24.1753 3.21552 24.1753 2.18155C24.1753 1.14757 23.3383 0.310547 22.3043 0.310547H12.9985C11.9646 0.310547 11.1275 1.14757 11.1275 2.18155C11.1275 3.21552 11.9646 4.05255 12.9985 4.05255H15.3619C16.0512 4.05255 16.6421 4.59415 16.6421 5.33271C16.6421 6.02202 16.1005 6.61287 15.3619 6.61287H15.3127C14.2787 6.61287 13.4417 7.44989 13.4417 8.48387C13.4417 9.51784 14.2787 10.3549 15.3127 10.3549H15.3619C16.0512 10.3549 16.6421 10.8965 16.6421 11.635C16.6421 12.3243 16.1005 12.9152 15.3619 12.9152H9.50272C8.81341 12.9152 8.22256 12.3736 8.22256 11.635C8.22256 10.9457 8.76417 10.3549 9.50272 10.3549H9.94585C10.9798 10.3549 11.8169 9.51784 11.8169 8.48387C11.8169 7.44989 10.9798 6.61287 9.94585 6.61287H4.62827C3.59429 6.61287 2.75727 7.44989 2.75727 8.48387C2.75727 9.51784 3.59429 10.3549 4.62827 10.3549H4.92369C5.61301 10.3549 6.20385 10.8965 6.20385 11.635C6.20385 12.3243 5.66224 12.9152 4.92369 12.9152H1.871C0.837027 12.9152 0 13.7522 0 14.7862C0 15.8202 0.837027 16.6572 1.871 16.6572H20.4825C21.5165 16.6572 22.3535 15.8202 22.3535 14.7862C22.3535 13.7522 21.5165 12.9152 20.4825 12.9152H19.9409C19.2516 12.9152 18.6608 12.3736 18.6608 11.635C18.6608 10.9457 19.2024 10.3549 19.9409 10.3549H25.9971C26.6864 10.3549 27.2772 10.8965 27.2772 11.635C27.2772 12.3243 26.7356 12.9152 25.9971 12.9152C24.9631 12.9152 24.1261 13.7522 24.1261 14.7862C24.1261 15.8202 24.9631 16.6572 25.9971 16.6572H33.0872C34.1212 16.6572 34.9582 15.8202 34.9582 14.7862C34.9582 13.7522 34.1704 12.9152 33.1364 12.9152Z" fill="url(#paint1_linear_10_7523)"></path><path d="M55.4919 25.0285C54.3595 26.2102 52.4885 26.8502 50.2728 26.8502C46.2846 26.8502 43.4781 25.1269 42.9365 21.8773H44.069C44.6106 24.4376 46.8755 25.767 50.2236 25.767C52.1438 25.767 53.7194 25.1762 54.6549 24.1914C55.1965 23.6006 55.4919 22.862 55.4427 22.025C55.3935 20.1048 53.8179 19.12 49.9774 18.5784C47.2694 18.1845 43.872 17.7414 43.8228 14.5903C43.8228 12.4238 45.8415 10.3066 49.7805 10.3066C53.2763 10.3066 55.5904 11.8822 56.2305 14.738H55.0488C54.4087 12.6208 52.587 11.3899 49.7805 11.3899C46.9247 11.3899 44.906 12.7685 44.9552 14.5903C45.0045 16.412 46.6293 17.0029 50.1251 17.446C53.424 17.9384 56.4274 18.7754 56.5751 21.9758C56.6244 23.1082 56.2305 24.1914 55.4919 25.0285Z" fill="#004D71"></path><path d="M60.9576 21.1818V26.4501H59.8252V10.6943H60.9576V19.6554L70.2142 10.6943H71.839L65.8813 16.4551L72.6268 26.4501H71.2482L65.0443 17.2428L60.9576 21.1818Z" fill="#004D71"></path><path d="M80.9966 31.2754C84.2462 31.2754 86.4126 29.0597 86.4126 25.8101V23.8898C85.3294 25.7116 83.4092 26.844 80.9473 26.844C77.1069 26.844 74.3496 24.0375 74.3496 20.2463V10.6943H75.4821V20.1971C75.4821 23.3975 77.7962 25.6624 80.9473 25.6624C84.1477 25.6624 86.4126 23.3482 86.4126 20.1971V10.6943H87.5943V25.7608C87.5943 29.6505 84.8863 32.3586 80.9966 32.3586" fill="#004D71"></path><path d="M114.476 20.8873C114.476 24.3339 111.965 26.8942 108.469 26.8942C105.909 26.8942 103.939 25.4664 103.053 23.3984C102.216 25.4664 100.197 26.8942 97.6368 26.8942C94.1902 26.8942 91.6299 24.3339 91.6299 20.8873V10.6953H92.8116V20.8381C92.8116 23.6446 94.8303 25.6633 97.6368 25.6633C100.443 25.6633 102.511 23.5954 102.511 20.8381V10.6953H103.644V20.8381C103.644 23.6446 105.712 25.6633 108.469 25.6633C111.275 25.6633 113.343 23.5954 113.343 20.8381V10.6953H114.476V20.8873Z" fill="#004D71"></path><path d="M138.848 21.0375C138.848 23.7455 140.079 25.5673 143.082 25.4688V26.5028C139.685 26.7982 137.715 24.5825 137.715 21.0375V11.8302H135.549V10.6977H137.715V7.34961H138.848V10.6977H143.082V11.8302H138.848V21.0375Z" fill="#004D71"></path><path d="M145.792 18.5794C145.841 22.6661 148.894 25.7188 152.734 25.7188C156.427 25.7188 158.101 23.6508 158.889 21.5829H160.07C158.987 24.9802 156.427 26.8512 152.734 26.8512C148.253 26.8512 144.659 23.2569 144.659 18.6287C144.659 14.0004 148.204 10.3076 152.537 10.3076C157.264 10.3076 160.464 14.5912 160.415 18.5794H145.792ZM159.184 17.447C158.642 14.0496 155.836 11.4893 152.537 11.4893C149.189 11.4893 146.432 14.0496 145.939 17.447H159.184Z" fill="#004D71"></path><path d="M170.999 11.3905C168.932 11.1936 167.307 11.7844 166.322 12.7199C165.19 13.7539 164.599 15.2802 164.599 16.9051V26.4078H163.417V16.9543C163.417 13.8524 165.19 12.2275 165.633 11.8337C167.011 10.6027 168.833 10.0119 170.999 10.2581V11.3905Z" fill="#004D71"></path><path d="M133.086 18.9733V18.6287C133.086 15.0344 130.969 12.0309 127.966 10.8492C127.917 10.8 127.818 10.8 127.769 10.7507C127.67 10.7015 127.572 10.6523 127.424 10.6523C127.227 10.603 127.08 10.5538 126.883 10.5046C126.833 10.5046 126.784 10.5046 126.735 10.4553C126.538 10.4061 126.341 10.4061 126.144 10.3569H125.947C125.701 10.3569 125.455 10.3076 125.258 10.3076C120.925 10.3076 117.38 14.0496 117.38 18.6287C117.38 23.1584 120.925 26.8512 125.258 26.8512C128.212 26.8512 130.723 25.1772 132.003 22.6661V26.4573H133.136V19.6134C133.086 19.3672 133.086 19.1703 133.086 18.9733ZM125.209 25.7188C121.516 25.7188 118.463 22.5184 118.463 18.6287C118.463 14.6897 121.516 11.4401 125.209 11.4401C128.507 11.4401 131.215 13.9511 131.806 17.25C131.905 17.6932 131.905 18.1363 131.905 18.5794C131.954 22.5184 128.951 25.7188 125.209 25.7188Z" fill="#004D71"></path><defs><linearGradient id="paint0_linear_10_7523" x1="20.784" y1="29.2571" x2="11.5801" y2="6.83313" gradientUnits="userSpaceOnUse"><stop stop-color="#006288"></stop><stop offset="1" stop-color="#B2D235"></stop></linearGradient><linearGradient id="paint1_linear_10_7523" x1="4.13314" y1="-21.5894" x2="15.0559" y2="8.09667" gradientUnits="userSpaceOnUse"><stop stop-color="#006288"></stop><stop offset="1" stop-color="#B2D235"></stop></linearGradient></defs></svg> 